<svg width="512" height="512" viewBox="0 0 512 512" fill="none" xmlns="http://www.w3.org/2000/svg">
  <rect width="512" height="512" fill="#2563eb"/>
  <path d="M256 128C256 110.327 270.327 96 288 96H352C369.673 96 384 110.327 384 128V192C384 209.673 369.673 224 352 224H288C270.327 224 256 209.673 256 192V128Z" fill="white"/>
  <path d="M128 256C128 238.327 142.327 224 160 224H352C369.673 224 384 238.327 384 256V384C384 401.673 369.673 416 352 416H160C142.327 416 128 401.673 128 384V256Z" fill="white"/>
  <rect x="160" y="256" width="64" height="128" fill="#2563eb"/>
</svg>
